<?xml version="1.0" encoding="UTF-8" standalone="no"?>
<svg
   width="20.097555mm"
   height="26.262213mm"
   viewBox="-90.539429 -829.71783 20.097664 26.261927"
   version="1.1"
   id="svg38"
   sodipodi:docname="raku_logo_black.svg"
   inkscape:version="1.3 (1:1.3+202307231459+0e150ed6c4)"
   xmlns:inkscape="http://www.inkscape.org/namespaces/inkscape"
   xmlns:sodipodi="http://sodipodi.sourceforge.net/DTD/sodipodi-0.dtd"
   xmlns="http://www.w3.org/2000/svg"
   xmlns:svg="http://www.w3.org/2000/svg">
  <defs
     id="defs38" />
  <sodipodi:namedview
     id="namedview38"
     pagecolor="#ffffff"
     bordercolor="#666666"
     borderopacity="1.0"
     inkscape:showpageshadow="2"
     inkscape:pageopacity="0.0"
     inkscape:pagecheckerboard="0"
     inkscape:deskcolor="#d1d1d1"
     inkscape:document-units="mm"
     inkscape:zoom="1.7649719"
     inkscape:cx="164.30857"
     inkscape:cy="-83.854027"
     inkscape:window-width="2355"
     inkscape:window-height="1329"
     inkscape:window-x="396"
     inkscape:window-y="264"
     inkscape:window-maximized="0"
     inkscape:current-layer="svg38" />
  <path
     style="fill:#1a1a1a;fill-rule:evenodd;stroke:none"
     d="m -75.099983,-822.93782 0.219764,-0.0698 0.01077,-0.60382 -0.135186,0.11786 c -0.215377,0.22284 -0.536392,0.30981 -0.834823,0.22619 -0.197296,-0.0638 -0.362595,-0.20056 -0.462273,-0.38238 -0.179527,-0.31299 -0.28994,-0.66095 -0.323669,-1.0202 -0.113205,-0.69147 -0.220536,-1.38459 -0.321762,-2.07795 0.322189,-0.17328 0.65438,-0.32733 0.994827,-0.46124 0.09334,-0.0476 0.201912,-0.0559 0.301262,-0.0226 0.09936,0.0332 0.181061,0.10516 0.227028,0.19934 l 0.05719,0.12964 0.570533,-0.47071 c -0.184021,-0.27832 -0.539665,-0.38629 -0.847366,-0.25726 -0.190842,0.0811 -0.376991,0.17273 -0.557579,0.2746 l -1.332321,0.62744 c 0.389465,-0.69959 0.800483,-1.38702 1.232467,-2.06122 0.118218,-0.2016 0.282677,-0.37225 0.479706,-0.49792 0.263664,-0.1109 0.564392,-0.0848 0.805046,0.0698 l 0.443337,-0.35687 c -0.305748,-0.16718 -0.670372,-0.18903 -0.993859,-0.0594 -0.410095,0.11755 -0.796363,0.30658 -1.140869,0.55823 -0.28965,0.33874 -0.537155,0.7113 -0.737198,1.10962 l -1.588188,2.82342 0.205841,-0.0141 0.0991,-0.002 0.131027,-0.006 0.186722,-0.004 0.71212,-1.28845 0.20977,-0.0549 0.172096,1.44574 c 0.02889,0.4071 0.139954,0.80426 0.32647,1.16736 0.358078,0.58612 0.983612,0.95605 1.669738,0.98748 z"
     id="path1"
     inkscape:export-filename="RAKU_icon_white.png"
     inkscape:export-xdpi="96"
     inkscape:export-ydpi="96" />
  <path
     style="fill:#1a1a1a;fill-rule:evenodd;stroke:none"
     d="m -87.3339,-821.3285 0.281845,-0.27765 c 0.244575,-0.24097 0.483726,-0.48737 0.717254,-0.73908 l 0.214577,-0.63617 -0.09544,0.0866 -0.500946,0.46997 -0.185318,0.16974 c 0.02814,-0.4303 0.0085,-0.86249 -0.05851,-1.28845 -0.110054,-0.35748 -0.269539,-0.69775 -0.473923,-1.01099 0.05612,-0.06 0.148293,-0.0679 0.213829,-0.0184 0.190438,0.11499 0.379364,0.23242 0.56675,0.3523 l 0.201866,0.12298 c 0.4972,0.32489 1.033028,0.58649 1.595055,0.77857 0.739395,0.2633 1.56504,-10e-4 2.013763,-0.64521 0.181496,-0.2611 0.296341,-0.5625 0.334656,-0.87823 0.310051,-0.30756 0.607612,-0.6275 0.891937,-0.95899 l 0.0046,0.27753 c -0.01151,0.17597 0.0087,0.35254 0.05959,0.5213 0.02351,0.0534 0.08249,0.0817 0.13887,0.0666 0.136154,-0.061 0.255776,-0.15356 0.349129,-0.27002 0.30439,-0.30767 0.599426,-0.62438 0.884766,-0.94983 l -0.04565,-0.23821 c -0.188263,0.23999 -0.406937,0.45459 -0.650391,0.6383 l -0.03204,0.0116 -0.04082,-0.003 c -0.07768,-0.0551 -0.118302,-0.14899 -0.105317,-0.24335 -0.03184,-0.70557 -0.02741,-1.41235 0.01329,-2.11749 0.04548,-0.11646 0.100792,-0.22882 0.165336,-0.33588 -0.476432,-0.0156 -0.951385,0.06 -1.399421,0.22278 -0.296334,0.20386 -0.557122,0.45465 -0.772377,0.7428 -0.171097,0.24243 -0.26883,0.52887 -0.281609,0.82531 -0.08546,0.53644 -0.06525,1.08429 0.0595,1.61298 0.03339,0.12933 0.100105,0.24762 0.193489,0.34314 l 0.01946,0.10852 c 0.07788,0.29504 -0.04538,0.60712 -0.303825,0.76935 -0.302933,0.11743 -0.638405,0.11706 -0.941078,-10e-4 -0.694588,-0.24615 -1.366196,-0.55286 -2.007179,-0.91644 l -0.718193,-0.38361 0.07871,-0.14929 c 0.256683,-0.41779 0.357178,-0.91296 0.283646,-1.3977 -0.06209,-0.36921 -0.348976,-0.65998 -0.717324,-0.72693 -0.266525,10e-4 -0.523124,0.10144 -0.719581,0.28155 -0.18454,0.15985 -0.358917,0.33106 -0.522187,0.51257 l -0.133186,-0.23138 -0.284897,0.76288 -0.141311,0.20074 c -0.316941,0.42414 -0.496704,0.93506 -0.515183,1.46424 0.03692,0.6167 0.413765,1.16144 0.977806,1.41339 l 0.245072,-0.72211 -0.159226,-0.0996 c -0.429588,-0.24444 -0.697189,-0.69879 -0.702705,-1.19305 0.04736,-0.34967 0.204185,-0.67529 0.448028,-0.9303 l 0.250954,0.43225 0.506287,0.87805 0.514099,0.87818 c 0.212265,0.32654 0.377952,0.68109 0.492241,1.0534 0.07745,0.344 -0.03895,0.70343 -0.30336,0.93677 -0.07972,0.0883 -0.16288,0.17352 -0.249268,0.25537 l 0.02168,0.47528 z m -1.171456,-5.0705 c 0.147972,-0.18579 0.33944,-0.33233 0.557373,-0.42676 0.215218,-0.0477 0.438156,0.0342 0.571358,0.20984 0.405655,0.43146 0.444969,1.09143 0.0934,1.568 -0.07649,0.11297 -0.158607,0.22204 -0.246079,0.32678 z m 5.922615,1.05994 c -0.111397,-0.0813 -0.183227,-0.20526 -0.198356,-0.34229 -0.12996,-0.62726 -0.08137,-1.27844 0.140243,-1.87945 0.08409,-0.20142 0.280899,-0.33319 0.499161,-0.33417 0.187004,-0.0211 0.375191,-0.0299 0.563347,-0.0264 -0.01363,0.26721 -0.0255,0.53394 -0.03565,0.80127 l -0.0017,0.80121 -0.0091,0.18036 c -0.189148,0.25397 -0.409081,0.48346 -0.654739,0.68329 -0.06085,0.0542 -0.131836,0.0958 -0.208847,0.12231 z"
     id="path2" />
  <path
     style="fill:#1a1a1a;fill-rule:evenodd;stroke:none"
     d="m -71.876541,-821.89405 c -0.306748,-0.0726 -0.60833,-0.16553 -0.90268,-0.27833 -0.03215,-0.002 -0.06219,-0.0171 -0.08208,-0.0424 -0.01989,-0.0253 -0.02761,-0.0581 -0.02179,-0.0898 0.117462,-0.16095 0.268967,-0.294 0.443749,-0.38965 0.637855,-0.41491 1.305542,-0.7821 1.997581,-1.09851 l -0.192985,-0.0614 c -0.115631,-0.0377 -0.229126,-0.0815 -0.339981,-0.13153 l -0.176751,-0.0541 c -0.581337,0.32923 -1.159034,0.6651 -1.732765,1.00751 l -0.254143,-0.0535 c -0.283348,-0.045 -0.560676,-0.1222 -0.826622,-0.2298 -0.05934,-0.0291 -0.08595,-0.0992 -0.0609,-0.16034 0.0487,-0.11225 0.130836,-0.20642 0.235336,-0.27002 0.497764,-0.32398 1.009109,-0.62671 1.532577,-0.90735 l 0.321152,-0.17944 c 0.08591,-0.0274 0.160637,-0.0826 0.211907,-0.15674 l 0.0098,-0.0378 -0.0063,-0.0371 c -0.137954,-0.10529 -0.29895,-0.1756 -0.46994,-0.2052 -0.300857,-0.0941 -0.604156,-0.17999 -0.909645,-0.25769 l -0.196594,0.11059 0.23661,0.0843 c 0.143303,0.027 0.272873,0.10388 0.365143,0.2168 0.0099,0.0562 -0.01134,0.11298 -0.05553,0.14899 -0.167457,0.12866 -0.346168,0.242 -0.533996,0.33862 l -0.774796,0.43469 c -0.275512,0.12635 -0.52053,0.31116 -0.717766,0.54132 -0.04881,0.0665 -0.07265,0.14795 -0.0673,0.23023 0.06434,0.13049 0.192688,0.21734 0.33776,0.22851 0.456887,0.12207 0.917092,0.23169 1.379937,0.32868 l -0.180313,0.10638 c -0.168259,0.0916 -0.319405,0.21149 -0.446793,0.35449 -0.03651,0.0539 -0.03005,0.1261 0.01545,0.17261 0.188781,0.11048 0.394142,0.18976 0.608177,0.23487 0.342682,0.0958 0.690376,0.17266 1.041504,0.23022 z"
     id="path3" />
  <path
     style="fill:#1a1a1a;fill-rule:evenodd;stroke:none"
     d="m -86.264771,-807.51759 c 0.17241,-0.025 0.34198,-0.0665 0.506348,-0.12427 0.598976,-0.19604 1.13089,-0.55633 1.535156,-1.03979 0.265175,-0.3869 0.301102,-0.88672 0.094,-1.30762 -0.244606,-0.46484 -0.562081,-0.88739 -0.94043,-1.25171 l 0.196045,-0.12573 -0.589844,-0.22217 -0.203613,-0.13061 c -0.612801,-0.41803 -1.351311,-0.61133 -2.090332,-0.54712 -0.566269,0.0804 -1.061013,0.4237 -1.334473,0.92602 l 0.687744,0.23609 0.135498,-0.21167 c 0.306984,-0.45758 0.835884,-0.71582 1.385498,-0.67652 0.416382,0.0639 0.807305,0.24024 1.13086,0.51001 -0.770371,0.48432 -1.536454,0.97583 -2.297852,1.47412 l -0.189209,0.11841 c -0.258652,0.18042 -0.551697,0.30567 -0.86084,0.36792 -0.235817,0.0193 -0.470443,-0.0474 -0.660888,-0.18774 l -0.240967,-0.17823 -0.537354,0.004 1.078125,1.01221 c 0.342713,0.35791 0.732941,0.66723 1.159668,0.91919 0.569771,0.29065 1.199272,0.44494 1.838867,0.45068 z m -1.006103,-0.31177 c -0.390732,-0.0482 -0.756966,-0.21557 -1.049072,-0.47949 -0.365448,-0.31775 -0.713051,-0.6554 -1.04126,-1.01148 0.42878,0.033 0.860199,6.8e-4 1.279297,-0.0957 0.29834,-0.11566 0.582649,-0.26452 0.847656,-0.44385 l 1.945557,-1.24218 c 0.285255,0.25366 0.51461,0.56384 0.673584,0.91089 0.132843,0.46728 -0.0061,0.96978 -0.360108,1.30249 -0.496292,0.52343 -1.138122,0.88562 -1.842773,1.03979 -0.149628,0.0247 -0.301682,0.0312 -0.452881,0.0195 z"
     id="path32" />
  <path
     style="fill:#1a1a1a;fill-rule:evenodd;stroke:none"
     d="m -72.075317,-808.24781 -1.086914,-1.62793 c 0.05391,-0.38715 0.128898,-0.77112 0.224609,-1.15015 2.52e-4,-0.0792 0.05609,-0.14825 0.133545,-0.16504 0.09326,0.0438 0.169403,0.11688 0.217041,0.20825 0.337738,0.48249 0.669296,0.96894 0.994873,1.45972 l 0.07251,0.10254 c 0.110984,0.20538 0.312568,0.34686 0.543457,0.38134 0.07531,-0.24475 0.134117,-0.4942 0.176025,-0.74682 0.05753,-0.32807 0.102242,-0.6582 0.134033,-0.98975 l -0.129394,-0.19384 c -0.05172,0.30102 -0.121262,0.59881 -0.208252,0.8916 -0.0033,0.0405 -0.0219,0.0783 -0.05256,0.10486 -0.03065,0.0266 -0.07075,0.0397 -0.11126,0.0372 -0.198799,-0.11347 -0.360015,-0.28211 -0.464355,-0.48584 -0.335205,-0.50965 -0.663315,-1.02381 -0.984375,-1.54248 l -0.0542,-0.0791 c -0.03723,-0.0626 -0.117317,-0.0847 -0.181397,-0.05 -0.128921,0.10717 -0.206421,0.26434 -0.21289,0.43188 -0.102326,0.50147 -0.196473,1.00427 -0.282471,1.50879 l -0.135742,-0.20996 c -0.1073,-0.17377 -0.226143,-0.34015 -0.355713,-0.49805 -0.02018,-0.0203 -0.04776,-0.0316 -0.07642,-0.0312 -0.0478,0.006 -0.08718,0.0402 -0.09961,0.0867 -0.142517,0.43573 -0.25595,0.88031 -0.339599,1.33106 l 0.12207,0.17724 0.104248,-0.31811 c 0.01748,-0.11182 0.06382,-0.21735 0.134278,-0.30591 l 0.03271,-0.0232 c 0.07336,-0.0158 0.147843,0.0226 0.177491,0.0915 0.459671,0.60199 0.880775,1.23248 1.260742,1.88769 l 0.214599,0.32373 z"
     id="path33" />
  <path
     style="fill:#1a1a1a;fill-rule:evenodd;stroke:none"
     d="m -77.973511,-809.36598 0.232178,-0.27173 c -0.04363,-0.0566 -0.09016,-0.11084 -0.139404,-0.16259 l -0.07446,-0.0913 -0.09521,-0.13721 -0.06909,-0.0945 -0.255371,0.29663 c -0.06686,0.0772 -0.136154,0.15228 -0.207764,0.22509 l 0.06983,0.11255 c 0.102134,0.13752 0.216705,0.26532 0.342285,0.38184 z"
     id="path34" />
  <path
     style="fill:#1a1a1a;fill-rule:evenodd;stroke:none"
     d="m -75.808472,-803.47658 c 1.01767,-0.25122 1.797188,-1.06988 1.998291,-2.09863 0.0067,-0.24048 -0.02718,-0.48034 -0.100341,-0.70947 -0.203064,-0.77203 -0.412018,-1.54181 -0.627198,-2.31055 l -0.05298,-0.21264 -0.102295,-0.45655 -0.04687,-0.17651 0.06543,-0.0679 c 0.06287,-0.16754 0.09349,-0.34528 0.09033,-0.52417 l -0.971192,0.53198 c -0.321945,0.15442 -0.572723,0.42688 -0.699951,0.7605 -0.157936,0.27136 -0.251556,0.57526 -0.273682,0.88843 0.0048,0.61914 0.156754,1.2279 0.443604,1.77661 0.08592,0.11255 0.198158,0.20227 0.326904,0.26123 -0.18528,0.43481 -0.357628,0.875 -0.516846,1.32007 -0.105491,0.23993 -0.138832,0.50537 -0.09595,0.76391 0.05203,0.18116 0.229271,0.29663 0.416016,0.271 z m 0.261719,-3.12622 -0.105957,-0.0676 c -0.183845,-0.20563 -0.299545,-0.46308 -0.331299,-0.73706 -0.07379,-0.29297 -0.118362,-0.59253 -0.133056,-0.89429 0.0021,-0.28626 0.178169,-0.54266 0.44458,-0.64746 0.270485,-0.15363 0.544532,-0.30109 0.821777,-0.44214 -0.111961,0.17108 -0.184715,0.36511 -0.212891,0.56763 0.03668,0.37903 0.107689,0.7539 0.212159,1.12011 -0.196747,0.37995 -0.384476,0.76453 -0.562989,1.15333 z m -0.152344,2.49341 c -0.06149,-0.0115 -0.118087,-0.0413 -0.162353,-0.0855 -0.130432,-0.19268 -0.145409,-0.44122 -0.03906,-0.64819 0.211457,-0.58258 0.453575,-1.15362 0.725342,-1.71069 l 0.394775,-0.85913 c 0.146424,0.5567 0.297791,1.12689 0.446778,1.68286 l 0.03467,0.14502 c 0.148895,0.42968 -0.03324,0.90582 -0.430908,1.12646 -0.253067,0.19007 -0.549958,0.31317 -0.863282,0.35791 z"
     id="path35" />
  <path
     style="fill:#1a1a1a;fill-rule:evenodd;stroke:none"
     d="m -84.27063,-805.53029 c 0.462853,-0.0566 0.911804,-0.19531 1.325928,-0.40966 l 0.08618,-0.21851 -0.279541,0.10181 c -0.303367,0.12799 -0.627723,0.1997 -0.956787,0.21142 -0.237815,0.0252 -0.458969,-0.12805 -0.518798,-0.35962 -0.01596,-0.20385 0.01997,-0.40826 0.104492,-0.59448 l 0.299072,-0.0701 c 0.447502,-0.10058 0.886467,-0.2362 1.312744,-0.40551 0.323212,-0.12226 0.549179,-0.4173 0.583008,-0.76123 -0.0065,-0.18641 -0.135368,-0.34638 -0.316162,-0.39234 -0.253395,-0.0724 -0.523049,-0.0626 -0.770508,0.0281 -0.541,0.11743 -1.013046,0.44653 -1.310303,0.91357 -0.260132,0.32831 -0.453651,0.70441 -0.56958,1.10694 -0.100632,0.33026 0.08146,0.68121 0.409424,0.78906 0.194054,0.061 0.398499,0.0817 0.60083,0.0605 z m 0.04761,-1.8125 c 0.180946,-0.30139 0.420242,-0.56359 0.703857,-0.77124 0.124412,-0.10839 0.294563,-0.14917 0.45459,-0.10888 0.09454,0.0455 0.146011,0.14886 0.125244,0.25171 -0.05592,0.32049 -0.293625,0.57946 -0.608154,0.66259 -0.274102,0.10004 -0.55468,0.18128 -0.839844,0.24317 z"
     id="path36" />
  <path
     style="fill:#1a1a1a;fill-rule:evenodd;stroke:none"
     d="m -78.177856,-804.9485 c 0.356361,-0.25049 0.682891,-0.54095 0.973144,-0.86572 l 0.19458,-0.17944 -0.01221,-0.22803 c -0.140816,0.11285 -0.279968,0.22766 -0.41748,0.34448 l -0.104004,0.0833 c -0.0822,0.0975 -0.20324,0.15412 -0.330811,0.15454 -0.08823,-0.0682 -0.139595,-0.17267 -0.139648,-0.28418 -0.0084,-0.37939 0.0047,-0.75903 0.03931,-1.13696 l 0.0459,-1.2124 c 0.01313,-0.0339 0.01238,-0.0717 -0.0024,-0.10498 -0.01475,-0.0333 -0.04227,-0.0592 -0.07623,-0.0723 -0.167397,0.0499 -0.317582,0.14472 -0.434571,0.27442 -0.24736,0.21631 -0.48632,0.44207 -0.716308,0.67675 l 0.02832,0.22486 0.143555,-0.1189 c 0.107116,-0.11481 0.237114,-0.20587 0.381591,-0.26733 l 0.04297,7.3e-4 0.03467,0.02 c 0.05847,0.12317 0.07828,0.26086 0.05689,0.39551 -0.02098,0.46362 -0.04906,0.92663 -0.08423,1.3894 l -0.01514,0.31006 c -0.02557,0.20178 0.01695,0.40619 0.120849,0.58106 0.03755,0.0472 0.0981,0.0699 0.157471,0.0591 z"
     id="path37" />
  <path
     style="fill:#1a1a1a;fill-rule:evenodd;stroke:none"
     d="m -81.573608,-804.80177 c 0.546974,-0.0513 1.041793,-0.34546 1.348144,-0.80151 0.132965,-0.21003 0.174072,-0.46515 0.11377,-0.7063 -0.113999,-0.17121 -0.267929,-0.31183 -0.448731,-0.40991 l -0.168945,-0.13965 c -0.214165,-0.17194 -0.251801,-0.48371 -0.08472,-0.70166 0.15638,-0.22107 0.461372,-0.27576 0.684815,-0.12281 0.09171,0.0704 0.169807,0.15693 0.230468,0.25538 0.152245,-0.11341 0.287659,-0.24793 0.4021,-0.39942 l -0.114014,-0.13135 c -0.172241,-0.15893 -0.414696,-0.21728 -0.640381,-0.15405 -0.504074,0.12091 -0.9244,0.46625 -1.140869,0.93726 -0.09927,0.25152 -0.033,0.53845 0.166504,0.72094 0.13842,0.12287 0.279007,0.2436 0.421387,0.36182 l 0.0769,0.0735 c 0.143479,0.14331 0.162743,0.36883 0.04565,0.53442 -0.153083,0.27149 -0.46434,0.4129 -0.769531,0.34961 -0.221611,-0.12024 -0.345352,-0.36499 -0.310791,-0.61475 l 0.002,-0.18457 -0.118408,0.0801 c -0.09306,0.062 -0.190575,0.11695 -0.291748,0.16455 l -0.150146,0.0891 c -0.08765,0.25 -0.0078,0.52869 0.198974,0.69434 0.162499,0.10339 0.358383,0.14093 0.547608,0.10498 z"
     id="path38" />
  <text
     xml:space="preserve"
     style="font-size:10.5834px;line-height:1.25;font-family:sans-serif;text-align:center;word-spacing:0px;text-anchor:middle;stroke-width:0.264585"
     x="-85.216515"
     y="-853.3432"
     id="text38"><tspan
       sodipodi:role="line"
       id="tspan38"
       style="stroke-width:0.264585"
       x="-85.216515"
       y="-853.3432" /></text>
  <text
     xml:space="preserve"
     style="font-style:normal;font-variant:normal;font-weight:normal;font-stretch:normal;font-size:12.4785px;line-height:1.25;font-family:'Yuji Mai';-inkscape-font-specification:'Yuji Mai, Normal';font-variant-ligatures:normal;font-variant-caps:normal;font-variant-numeric:normal;font-variant-east-asian:normal;text-align:center;word-spacing:0px;text-anchor:middle;fill:#ff0000;stroke-width:0.311962"
     x="-78.869179"
     y="-824.97852"
     id="text39"
     transform="scale(1.0153054,0.98492532)"><tspan
       sodipodi:role="line"
       id="tspan39"
       style="font-style:normal;font-variant:normal;font-weight:normal;font-stretch:normal;font-size:12.4785px;font-family:'Yuji Mai';-inkscape-font-specification:'Yuji Mai, Normal';font-variant-ligatures:normal;font-variant-caps:normal;font-variant-numeric:normal;font-variant-east-asian:normal;fill:#ff0000;stroke-width:0.311962"
       x="-78.869179"
       y="-824.97852">楽</tspan></text>
</svg>
